<?xml version="1.0" encoding="utf-8"?>
<svg xmlns="http://www.w3.org/2000/svg" width="300" height="50" viewBox="0 0 300 50">
  <polygon points="64.4 12.5 67.75 12.5 69.5 12.5 74.84 31.55 74.98 31.55 85.59 12.5 87.26 12.5 90.68 12.5 87.16 37.67 83.74 37.67 86.62 16.98 86.55 16.98 75.16 37.67 72.88 37.67 67.25 16.98 67.18 16.98 63.59 37.67 60.17 37.67 64.4 12.5" fill="#ffffff"/>
  <path d="M91.11,20.82h3.7L98,34h.07l6.62-13.15h3.42L97.23,41.29a22.81,22.81,0,0,1-1.16,2,7.72,7.72,0,0,1-1.31,1.55,5.57,5.57,0,0,1-1.69,1,6.57,6.57,0,0,1-2.28.36,11.44,11.44,0,0,1-1.43-.09A4.46,4.46,0,0,1,88,45.74l.75-2.92a4.67,4.67,0,0,0,1.89.39A3.92,3.92,0,0,0,92,43a2.72,2.72,0,0,0,1-.57,5.34,5.34,0,0,0,.75-.87,12.81,12.81,0,0,0,.66-1.14l1.38-2.67Z" fill="#ffffff"/>
  <path d="M130,28a12.17,12.17,0,0,1-.68,4.13,9.15,9.15,0,0,1-2,3.27A9.39,9.39,0,0,1,124,37.53a14,14,0,0,1-9.22,0,9.39,9.39,0,0,1-3.33-2.17,9.15,9.15,0,0,1-2-3.27,12.17,12.17,0,0,1-.68-4.13V12.5h5.55V27.75a6.11,6.11,0,0,0,.38,2.17,5.17,5.17,0,0,0,1,1.72,4.67,4.67,0,0,0,1.62,1.14,5.14,5.14,0,0,0,2,.41,5,5,0,0,0,2-.41A4.72,4.72,0,0,0,123,31.64a5.17,5.17,0,0,0,1-1.72,6.1,6.1,0,0,0,.37-2.17V12.5H130Z" fill="#ffffff"/>
  <path d="M146.15,18.65a3.92,3.92,0,0,0-1.83-1.26,6.73,6.73,0,0,0-2.19-.41,6.06,6.06,0,0,0-1.25.14,5,5,0,0,0-1.21.45,2.68,2.68,0,0,0-.93.8,2,2,0,0,0-.35,1.2,2,2,0,0,0,.85,1.75,8.36,8.36,0,0,0,2.16,1c.86.28,1.79.57,2.79.85a11.46,11.46,0,0,1,2.8,1.21,6.63,6.63,0,0,1,2.15,2.1A6.35,6.35,0,0,1,150,30a8.16,8.16,0,0,1-.78,3.67,7.45,7.45,0,0,1-2.12,2.59,8.91,8.91,0,0,1-3.1,1.53,13.64,13.64,0,0,1-3.72.5,13.45,13.45,0,0,1-4.55-.75,11.39,11.39,0,0,1-3.92-2.42l3.95-4.33a5.8,5.8,0,0,0,2.16,1.76,6.19,6.19,0,0,0,2.69.62A6,6,0,0,0,142,33a4.71,4.71,0,0,0,1.24-.48,2.61,2.61,0,0,0,.89-.82,2,2,0,0,0,.34-1.17,2.14,2.14,0,0,0-.87-1.8,8.3,8.3,0,0,0-2.19-1.12c-.88-.3-1.83-.61-2.85-.92a13,13,0,0,1-2.85-1.24,6.87,6.87,0,0,1-2.19-2.07,5.87,5.87,0,0,1-.87-3.37,7.42,7.42,0,0,1,2.94-6.12,9.28,9.28,0,0,1,3.08-1.54,12.37,12.37,0,0,1,3.59-.52,13.9,13.9,0,0,1,4.13.61,9.61,9.61,0,0,1,3.6,2Z" fill="#ffffff"/>
  <path d="M161.32,19.63c.21-1.57,1.68-3.85,5.46-3.85A4.58,4.58,0,0,1,171,18l3.15-2.53c-1.58-2.31-4.15-2.88-6.89-2.88-6.07,0-9.14,4.1-9.57,7-1.39,9.84,11.6,6.24,10.78,12.05-.39,2.78-3.39,4.2-5.64,4.2a5.34,5.34,0,0,1-5-2.7l-3.18,2.42c1.39,2.39,4.32,3.49,7.57,3.49,4.85,0,9.21-2.92,9.89-7.8,1.28-9.09-11.71-5.28-10.82-11.66" fill="#ffffff"/>
  <path d="M161.32,19.63c.21-1.57,1.68-3.85,5.46-3.85A4.58,4.58,0,0,1,171,18l3.15-2.53c-1.58-2.31-4.15-2.88-6.89-2.88-6.07,0-9.14,4.1-9.57,7-1.39,9.84,11.6,6.24,10.78,12.05-.39,2.78-3.39,4.2-5.64,4.2a5.34,5.34,0,0,1-5-2.7l-3.18,2.42c1.39,2.39,4.32,3.49,7.57,3.49,4.85,0,9.21-2.92,9.89-7.8C173.42,22.2,160.43,26,161.32,19.63Z" fill="none" stroke="#ffffff" stroke-miterlimit="10" stroke-width="0.25"/>
  <path d="M185,21.13a7,7,0,0,0-6,3h-.07l1.79-12.65H177.5l-3.78,26.94h3.21l1.22-8.7c.57-3.92,2.85-5.63,5.53-5.63,2,0,3.68,1.18,3.21,4.35l-1.39,10h3.21l1.54-10.87c.64-4.49-2-6.45-5.25-6.45" fill="#ffffff"/>
  <path d="M185,21.13a7,7,0,0,0-6,3h-.07l1.79-12.65H177.5l-3.78,26.94h3.21l1.22-8.7c.57-3.92,2.85-5.63,5.53-5.63,2,0,3.68,1.18,3.21,4.35l-1.39,10h3.21l1.54-10.87C190.89,23.09,188.29,21.13,185,21.13Z" fill="none" stroke="#ffffff" stroke-miterlimit="10" stroke-width="0.25"/>
  <path d="M202.39,21.13A10.59,10.59,0,0,0,192.14,30a7.56,7.56,0,0,0,7.75,8.88A10.55,10.55,0,0,0,210.13,30a7.53,7.53,0,0,0-7.74-8.87M206.71,30a6.41,6.41,0,0,1-6.39,5.88c-3.43,0-5.22-2.45-4.75-5.88A6.47,6.47,0,0,1,202,24.12c3.42,0,5.21,2.46,4.71,5.88" fill="#ffffff"/>
  <path d="M202.39,21.13A10.59,10.59,0,0,0,192.14,30a7.56,7.56,0,0,0,7.75,8.88A10.55,10.55,0,0,0,210.13,30,7.53,7.53,0,0,0,202.39,21.13ZM206.71,30a6.41,6.41,0,0,1-6.39,5.88c-3.43,0-5.22-2.45-4.75-5.88A6.47,6.47,0,0,1,202,24.12C205.42,24.12,207.21,26.58,206.71,30Z" fill="none" stroke="#ffffff" stroke-miterlimit="10" stroke-width="0.25"/>
  <path d="M223,21.13A8.35,8.35,0,0,0,216.67,24h-.08l.36-2.42h-3.21L209.92,48.5h3.21L214.92,36H215a6,6,0,0,0,5.46,2.85A9.93,9.93,0,0,0,230.3,30c.72-5-2.1-8.87-7.35-8.87M226.87,30a6.39,6.39,0,0,1-6.38,5.88c-3.43,0-5.22-2.45-4.75-5.88a6.46,6.46,0,0,1,6.42-5.88c3.43,0,5.22,2.46,4.71,5.88" fill="#ffffff"/>
  <path d="M223,21.13A8.35,8.35,0,0,0,216.67,24h-.08l.36-2.42h-3.21L209.92,48.5h3.21L214.92,36H215a6,6,0,0,0,5.46,2.85A9.93,9.93,0,0,0,230.3,30C231,25,228.2,21.13,223,21.13ZM226.87,30a6.39,6.39,0,0,1-6.38,5.88c-3.43,0-5.22-2.45-4.75-5.88a6.46,6.46,0,0,1,6.42-5.88C225.59,24.12,227.38,26.58,226.87,30Z" fill="none" stroke="#ffffff" stroke-miterlimit="10" stroke-width="0.25"/>
  <path d="M243.25,21.13A8.38,8.38,0,0,0,237,24h-.07l.35-2.42H234L230.22,48.5h3.21L235.22,36h.07a6,6,0,0,0,5.46,2.85A9.94,9.94,0,0,0,250.61,30c.71-5-2.11-8.87-7.36-8.87M247.18,30a6.4,6.4,0,0,1-6.39,5.88c-3.43,0-5.21-2.45-4.75-5.88a6.47,6.47,0,0,1,6.43-5.88c3.42,0,5.21,2.46,4.71,5.88" fill="#ffffff"/>
  <path d="M243.25,21.13A8.38,8.38,0,0,0,237,24h-.07l.35-2.42H234L230.22,48.5h3.21L235.22,36h.07a6,6,0,0,0,5.46,2.85A9.94,9.94,0,0,0,250.61,30C251.32,25,248.5,21.13,243.25,21.13ZM247.18,30a6.4,6.4,0,0,1-6.39,5.88c-3.43,0-5.21-2.45-4.75-5.88a6.47,6.47,0,0,1,6.43-5.88C245.89,24.12,247.68,26.58,247.18,30Z" fill="none" stroke="#ffffff" stroke-miterlimit="10" stroke-width="0.25"/>
  <path d="M257.58,13.15a2.82,2.82,0,0,0-2.68,2.35,2,2,0,0,0,2,2.35,2.88,2.88,0,0,0,2.71-2.35,2,2,0,0,0-2-2.35" fill="#ffffff"/>
  <path d="M257.58,13.15a2.82,2.82,0,0,0-2.68,2.35,2,2,0,0,0,2,2.35,2.88,2.88,0,0,0,2.71-2.35A2,2,0,0,0,257.58,13.15Z" fill="none" stroke="#ffffff" stroke-miterlimit="10" stroke-width="0.25"/>
  <polygon points="252.4 38.45 255.61 38.45 258 21.56 254.79 21.56 252.4 38.45" fill="#ffffff"/>
  <polygon points="252.4 38.45 255.61 38.45 258 21.56 254.79 21.56 252.4 38.45" fill="none" stroke="#ffffff" stroke-miterlimit="10" stroke-width="0.25"/>
  <path d="M270.81,21.13a7,7,0,0,0-6,3h-.07l.39-2.6h-3.21l-2.39,16.89h3.21l1.21-8.7c.57-3.92,2.86-5.63,5.54-5.63,2,0,3.67,1.18,3.21,4.35l-1.39,10h3.21l1.53-10.87c.65-4.49-2-6.45-5.24-6.45" fill="#ffffff"/>
  <path d="M270.81,21.13a7,7,0,0,0-6,3h-.07l.39-2.6h-3.21l-2.39,16.89h3.21l1.21-8.7c.57-3.92,2.86-5.63,5.54-5.63,2,0,3.67,1.18,3.21,4.35l-1.39,10h3.21l1.53-10.87C276.7,23.09,274.09,21.13,270.81,21.13Z" fill="none" stroke="#ffffff" stroke-miterlimit="10" stroke-width="0.25"/>
  <path d="M293.79,21.56,293.43,24h-.07a6.2,6.2,0,0,0-5.5-2.85A10,10,0,0,0,278,30c-.72,4.92,2.43,8.66,7.39,8.66a7.79,7.79,0,0,0,6.28-3h.11l-.36,2.49C291,41,289.29,44,284.51,44a6.78,6.78,0,0,1-5.65-2.74L276.29,44a10.08,10.08,0,0,0,7.86,3c5.53,0,9.74-3.6,10.49-8.69L297,21.56ZM292.57,30a6.18,6.18,0,0,1-6.35,5.67c-3.43,0-5.25-2.24-4.78-5.67a6.45,6.45,0,0,1,6.42-5.88c3.43,0,5.21,2.46,4.71,5.88" fill="#ffffff"/>
  <path d="M293.79,21.56,293.43,24h-.07a6.2,6.2,0,0,0-5.5-2.85A10,10,0,0,0,278,30c-.72,4.92,2.43,8.66,7.39,8.66a7.79,7.79,0,0,0,6.28-3h.11l-.36,2.49C291,41,289.29,44,284.51,44a6.78,6.78,0,0,1-5.65-2.74L276.29,44a10.08,10.08,0,0,0,7.86,3c5.53,0,9.74-3.6,10.49-8.69L297,21.56ZM292.57,30a6.18,6.18,0,0,1-6.35,5.67c-3.43,0-5.25-2.24-4.78-5.67a6.45,6.45,0,0,1,6.42-5.88C291.29,24.12,293.07,26.58,292.57,30Z" fill="none" stroke="#ffffff" stroke-miterlimit="10" stroke-width="0.25"/>
  <path d="M39.53,39.42a4.13,4.13,0,1,0,4.13,4.13,4.15,4.15,0,0,0-4.13-4.13m0,5.95a1.82,1.82,0,1,1,1.81-1.82,1.8,1.8,0,0,1-1.81,1.82" fill="#ffffff"/>
  <path d="M23.53,39.42a4.13,4.13,0,1,0,4.13,4.13,4.15,4.15,0,0,0-4.13-4.13m0,5.95a1.82,1.82,0,1,1,1.81-1.82,1.79,1.79,0,0,1-1.81,1.82" fill="#ffffff"/>
  <path d="M52.16,9c-1.58-.4-1.68,1-1.69,1L47.76,27.52H16.28L10.74,4.09a1.16,1.16,0,0,0-.89-.89L5,1.58a1.34,1.34,0,0,0-.48-.08,1.55,1.55,0,0,0-1.44.82,1.62,1.62,0,0,0,.88,2L8.33,5.78h0L15.6,36.07a1.16,1.16,0,0,0,1.13.91h31a1.16,1.16,0,0,0,.14-2.31h-30l-1.07-4.82H49a1.15,1.15,0,0,0,1.13-.91L53,10.6s.21-1.33-.8-1.58" fill="#ffffff"/>
  <path d="M27.66,23.73H19.28a.92.92,0,0,1-.87-.7L15.93,10.49a1,1,0,0,1,.87-1.26H27.66a1,1,0,0,1,.91,1V22.75a1,1,0,0,1-.91,1" fill="#ffffff"/>
  <path d="M46.15,9.24H32.63a1.54,1.54,0,1,0,0,3.08H46.15a1.6,1.6,0,0,0,1.53-1.05,1.55,1.55,0,0,0-1.53-2" fill="#ffffff"/>
  <path d="M44.58,14.94H32.63a1.54,1.54,0,1,0,0,3.08H44.58A1.61,1.61,0,0,0,46.11,17a1.56,1.56,0,0,0-1.53-2" fill="#ffffff"/>
  <path d="M43.75,20.64H32.63a1.55,1.55,0,1,0,0,3.09H43.75a1.6,1.6,0,0,0,1.52-1.06,1.55,1.55,0,0,0-1.52-2" fill="#ffffff"/>
</svg>