<?xml version="1.0" encoding="UTF-8"?><svg width="291" height="256" viewBox="0 0 291 256" xmlns="http://www.w3.org/2000/svg" xmlns:xlink="http://www.w3.org/1999/xlink"><svg width="24" height="24" viewBox="0 0 24 24" id="icon-account" x="233" y="157" xmlns="http://www.w3.org/2000/svg"><path d="M12 .5A11.5 11.5 0 0 1 23.5 12 11.5 11.5 0 0 1 12 23.5 11.5 11.5 0 0 1 .5 12 11.5 11.5 0 0 1 12 .5z" fill="none" stroke="#fff"/><path d="M4.5 20.73c0-4.55 3.36-8.23 7.5-8.23 4.14 0 7.5 3.68 7.5 8.23M12 3.3a4.49 4.49 0 0 1 4.5 4.5 4.49 4.49 0 0 1-4.5 4.5 4.49 4.49 0 0 1-4.5-4.5A4.49 4.49 0 0 1 12 3.3z" fill="none" stroke="#fff" stroke-miterlimit="10"/></svg><svg width="24" height="24" viewBox="0 0 24 24" id="icon-account-grey" x="48" y="210" xmlns="http://www.w3.org/2000/svg"><path d="M12 .5A11.5 11.5 0 0 1 23.5 12 11.5 11.5 0 0 1 12 23.5 11.5 11.5 0 0 1 .5 12 11.5 11.5 0 0 1 12 .5z" fill="none" stroke="#333"/><path d="M4.5 20.73c0-4.55 3.36-8.23 7.5-8.23 4.14 0 7.5 3.68 7.5 8.23M12 3.3a4.49 4.49 0 0 1 4.5 4.5 4.49 4.49 0 0 1-4.5 4.5 4.49 4.49 0 0 1-4.5-4.5A4.49 4.49 0 0 1 12 3.3z" fill="none" stroke="#333" stroke-miterlimit="10"/></svg><svg width="40" height="40" viewBox="0 0 40 40" id="icon-alert-large" x="192" y="146" xmlns="http://www.w3.org/2000/svg"><circle cx="20" cy="20" r="19" fill="none" stroke="#d00000" stroke-width="2"/><path d="M18.84 28.35a1.9 1.9 0 1 1 1.9 1.9 1.83 1.83 0 0 1-1.9-1.9zm3.25-18.09l-.23 13.18h-2.27l-.23-13.18z" fill="#d00000" style="isolation:isolate"/></svg><svg width="24" height="24" viewBox="0 0 24 24" id="icon-alert-small" x="140" y="97" xmlns="http://www.w3.org/2000/svg"><circle cx="12" cy="12" r="11" fill="none" stroke="#d00000" stroke-width="2"/><path d="M10.74 16.54a1.15 1.15 0 0 1 1.08-1.2H12a1.2 1.2 0 1 1 .22 2.39H12a1.13 1.13 0 0 1-1.21-1zm2.15-10.28l-.16 7.55h-1.58L11 6.26z" fill="#d00000"/></svg><svg width="11" height="18" viewBox="-41.9 362.5 11 18" id="icon-arrow" x="273" y="18" xmlns="http://www.w3.org/2000/svg"><path fill="#767676" d="M-41.1 380c-.6-.6-.6-1.5 0-2l6.4-6.4-6.4-6.4c-.6-.6-.6-1.5 0-2 .6-.6 1.5-.6 2 0l7.5 7.5c.3.3.4.6.4 1s-.2.7-.4 1l-7.5 7.5c-.3.3-.6.4-1 .4-.3-.2-.7-.3-1-.6z"/></svg><svg width="14" height="13" viewBox="0 0 14 13" id="icon-arrow-blue" x="273" y="184" xmlns="http://www.w3.org/2000/svg"><g xmlns:sketch="http://www.bohemiancoding.com/sketch/ns"><path fill="#246bb1" d="M13.1 5.4L8.2.4C7.6-.1 6.6-.1 6 .4 5.5 1 5.5 2 6 2.6L8.4 5H1.5C.7 5 0 5.6 0 6.5S.7 8 1.5 8h6.9L6 10.3c-.6.6-.6 1.5 0 2.1.3.3.7.4 1.1.4.4 0 .8-.1 1.1-.4l4.9-5c.6-.5.6-1.4 0-2"/><path fill="#246bb1" d="M13.1 5.4L8.2.4C7.6-.1 6.6-.1 6 .4 5.5 1 5.5 2 6 2.6L8.4 5H1.5C.7 5 0 5.6 0 6.5S.7 8 1.5 8h6.9L6 10.3c-.6.6-.6 1.5 0 2.1.3.3.7.4 1.1.4.4 0 .8-.1 1.1-.4l4.9-5c.6-.5.6-1.4 0-2"/></g></svg><svg width="22" height="13" viewBox="0 0 22 13" id="icon-arrow-down" x="191" y="128" xmlns="http://www.w3.org/2000/svg"><path d="M10 12.15a.52.52 0 0 1-.2-.4L1 3A1.45 1.45 0 0 1 1 .85a1.45 1.45 0 0 1 2.1 0l8 8 8-8a1.45 1.45 0 0 1 2.1 0A1.5 1.5 0 0 1 21.6 2c0 .4 0 .8-.3 1l-8.8 8.8c-.1.1-.1.3-.2.4a1.5 1.5 0 0 1-1.1.4 1.75 1.75 0 0 1-1.2-.45z" fill="#767676"/></svg><svg width="22" height="13" viewBox="0 0 22 13" id="icon-arrow-down-white" x="169" y="128" xmlns="http://www.w3.org/2000/svg"><path d="M10 12.15a.52.52 0 0 1-.2-.4L1 3A1.45 1.45 0 0 1 1 .85a1.45 1.45 0 0 1 2.1 0l8 8 8-8a1.45 1.45 0 0 1 2.1 0A1.5 1.5 0 0 1 21.6 2c0 .4 0 .8-.3 1l-8.8 8.8c-.1.1-.1.3-.2.4a1.5 1.5 0 0 1-1.1.4 1.75 1.75 0 0 1-1.2-.45z" fill="#fff"/></svg><svg width="13" height="22" viewBox="-633.5 389.5 13 22" id="icon-arrow-left" x="257" y="157" xmlns="http://www.w3.org/2000/svg"><path fill="#246bb1" d="M-632.6 399.4c.1-.1.2-.2.4-.2l8.8-8.8c.6-.6 1.5-.6 2.1 0 .6.6.6 1.5 0 2.1l-8 8 8 8c.6.6.6 1.5 0 2.1-.3.3-.7.4-1.1.4-.4 0-.8 0-1-.3l-8.8-8.8c-.1-.1-.3-.1-.4-.2-.3-.3-.4-.7-.4-1.1s.1-.9.4-1.2z"/></svg><svg width="13" height="22" viewBox="-633.5 389.5 13 22" id="icon-arrow-left-white" y="234" xmlns="http://www.w3.org/2000/svg"><path fill="#FFF" d="M-632.6 399.4c.1-.1.2-.2.4-.2l8.8-8.8c.6-.6 1.5-.6 2.1 0 .6.6.6 1.5 0 2.1l-8 8 8 8c.6.6.6 1.5 0 2.1-.3.3-.7.4-1.1.4-.4 0-.8 0-1-.3l-8.8-8.8c-.1-.1-.3-.1-.4-.2-.3-.3-.4-.7-.4-1.1s.1-.9.4-1.2z"/></svg><svg width="13" height="22" viewBox="633.6 281.6 13 22" id="icon-arrow-right" x="257" y="181" xmlns="http://www.w3.org/2000/svg"><path fill="#246bb1" d="M645.7 293.7c-.1.1-.2.2-.4.2l-8.8 8.8c-.6.6-1.5.6-2.1 0-.6-.6-.6-1.5 0-2.1l8-8-8-8c-.6-.6-.6-1.5 0-2.1.3-.3.7-.4 1.1-.4s.8.1 1.1.4l8.8 8.8c.1.1.3.1.4.2.3.3.4.7.4 1.1-.1.4-.2.8-.5 1.1z"/></svg><svg width="13" height="22" viewBox="633.6 281.6 13 22" id="icon-arrow-right-white" x="216" y="186" xmlns="http://www.w3.org/2000/svg"><path fill="#fff" d="M645.7 293.7c-.1.1-.2.2-.4.2l-8.8 8.8c-.6.6-1.5.6-2.1 0-.6-.6-.6-1.5 0-2.1l8-8-8-8c-.6-.6-.6-1.5 0-2.1.3-.3.7-.4 1.1-.4s.8.1 1.1.4l8.8 8.8c.1.1.3.1.4.2.3.3.4.7.4 1.1-.1.4-.2.8-.5 1.1z"/></svg><svg width="22" height="13" viewBox="0 0 22 13" id="icon-arrow-up-white" x="94" y="210" xmlns="http://www.w3.org/2000/svg"><path d="M11.2.4a1.5 1.5 0 0 1 1.1.4c.1.1.1.3.2.4l8.8 8.8c.3.2.3.6.3 1a1.5 1.5 0 0 1-.4 1.1 1.45 1.45 0 0 1-2.1 0l-8-8-8 8a1.45 1.45 0 0 1-2.1 0A1.45 1.45 0 0 1 1 10l8.8-8.8a.52.52 0 0 1 .2-.4 1.75 1.75 0 0 1 1.2-.4z" fill="#fff"/></svg><svg width="18" height="14" viewBox="0 0 18 14" id="icon-back" x="273" y="106" xmlns="http://www.w3.org/2000/svg"><g transform="translate(-3 -5)" fill="none" fill-rule="evenodd"><path d="M0 0h24v24H0z"/><path d="M4 12h16M4 12l7-6M4 12l7 6" stroke="#1C2023" stroke-width="2" stroke-linecap="round"/></g></svg><svg width="17" height="17" viewBox="0 0 17 17" id="icon-blue-arrow" x="273" y="137" xmlns="http://www.w3.org/2000/svg"><g fill="none" fill-rule="evenodd" transform="translate(1 .981)"><ellipse cx="7.5" cy="7.5" stroke="#246bb1" stroke-linecap="square" rx="7.5" ry="7.5"/><path fill="#246bb1" d="M7.315 3L12 7.484 7.315 12 5 9.768 7.352 7.5 5 5.232 7.315 3z"/></g></svg><svg width="24" height="24" viewBox="0 0 24 24" id="icon-cart" x="24" y="210" xmlns="http://www.w3.org/2000/svg"><g transform="translate(0 -1)" stroke="#FFF" fill="none" fill-rule="evenodd"><circle cx="10" cy="22" r="2.5"/><circle cx="17" cy="22" r="2.5"/><path d="M6.5 19L2.423 1.5M20 16l3.5-10.5M.5 1.5h1.8M6.5 5.25h17M6 16.201h14M6.6 19H20" stroke-linecap="round"/></g></svg><svg width="80" height="73" viewBox="0 0 79.5 73" id="icon-cart-blue" x="89" xmlns="http://www.w3.org/2000/svg"><g fill="#10689C"><path d="M57.9 59.5c-3.5 0-6.4 2.9-6.4 6.4 0 3.5 2.9 6.4 6.4 6.4 3.5 0 6.4-2.9 6.4-6.4 0-3.6-2.9-6.4-6.4-6.4m0 9.2c-1.6 0-2.8-1.2-2.8-2.8 0-1.6 1.2-2.8 2.8-2.8 1.6 0 2.8 1.2 2.8 2.8 0 1.5-1.2 2.8-2.8 2.8M33.2 59.5c-3.5 0-6.4 2.9-6.4 6.4 0 3.5 2.9 6.4 6.4 6.4 3.5 0 6.4-2.9 6.4-6.4 0-3.6-2.9-6.4-6.4-6.4m0 9.2c-1.6 0-2.8-1.2-2.8-2.8 0-1.6 1.2-2.8 2.8-2.8 1.6 0 2.8 1.2 2.8 2.8 0 1.5-1.2 2.8-2.8 2.8M77.4 12.5c-2.4-.6-2.6 1.5-2.6 1.6l-4.2 27H22L13.5 4.9c-.1-.7-.7-1.2-1.4-1.4L4.7 1C4.4.9 4.2.9 3.9.9 2.8.9 2 1.4 1.7 2.2c-.5 1 .3 2.6 1.4 3.1l6.7 2.2L21 54.3c.2.8.9 1.4 1.7 1.4h47.9c1 0 1.9-.9 1.8-1.9-.1-.9-.7-1.6-1.6-1.7H24.5l-1.6-7.4h49.6c.8 0 1.6-.6 1.7-1.4L78.6 15c0-.1.3-2.1-1.2-2.5"/><path d="M39.6 35.2H26.7c-.6 0-1.2-.4-1.3-1.1l-3.8-19.4c-.3-1 .4-1.9 1.3-1.9h16.8c.8 0 1.4.7 1.4 1.5v19.4c-.1.8-.7 1.5-1.5 1.5M68.1 12.8H47.3c-1.4 0-2.5 1.1-2.5 2.4 0 1.3 1.1 2.4 2.5 2.4h20.9c1.1 0 2-.7 2.4-1.6.4-1.6-.8-3.2-2.5-3.2M65.7 21.6H47.3c-1.4 0-2.5 1.1-2.5 2.4 0 1.3 1.1 2.4 2.5 2.4h18.4c1.1 0 2-.7 2.4-1.6.5-1.6-.7-3.2-2.4-3.2M64.4 30.4H47.3c-1.4 0-2.5 1.1-2.5 2.4 0 1.3 1.1 2.4 2.5 2.4h17.1c1.1 0 2-.7 2.4-1.6.5-1.6-.7-3.2-2.4-3.2"/></g></svg><svg width="80" height="73" viewBox="0 0 79.5 73" id="icon-cart-red-blue" y="73" xmlns="http://www.w3.org/2000/svg"><path fill="#10689C" d="M57.9 59.5c-3.5 0-6.4 2.9-6.4 6.4 0 3.5 2.9 6.4 6.4 6.4 3.5 0 6.4-2.9 6.4-6.4 0-3.6-2.9-6.4-6.4-6.4m0 9.2c-1.6 0-2.8-1.2-2.8-2.8 0-1.6 1.2-2.8 2.8-2.8 1.6 0 2.8 1.2 2.8 2.8 0 1.5-1.2 2.8-2.8 2.8M33.2 59.5c-3.5 0-6.4 2.9-6.4 6.4 0 3.5 2.9 6.4 6.4 6.4 3.5 0 6.4-2.9 6.4-6.4 0-3.6-2.9-6.4-6.4-6.4m0 9.2c-1.6 0-2.8-1.2-2.8-2.8 0-1.6 1.2-2.8 2.8-2.8 1.6 0 2.8 1.2 2.8 2.8 0 1.5-1.2 2.8-2.8 2.8M77.4 12.5c-2.4-.6-2.6 1.5-2.6 1.6l-4.2 27H22L13.5 4.9c-.1-.7-.7-1.2-1.4-1.4L4.7 1C4.4.9 4.2.9 3.9.9 2.8.9 2 1.4 1.7 2.2c-.5 1 .3 2.6 1.4 3.1l6.7 2.2L21 54.3c.2.8.9 1.4 1.7 1.4h47.9c1 0 1.9-.9 1.8-1.9-.1-.9-.7-1.6-1.6-1.7H24.5l-1.6-7.4h49.6c.8 0 1.6-.6 1.7-1.4L78.6 15c0-.1.3-2.1-1.2-2.5"/><path fill="#10689C" d="M39.6 35.2H26.7c-.6 0-1.2-.4-1.3-1.1l-3.8-19.4c-.3-1 .4-1.9 1.3-1.9h16.8c.8 0 1.4.7 1.4 1.5v19.4c-.1.8-.7 1.5-1.5 1.5"/><path fill="#cf3339" d="M68.1 12.8H47.3c-1.4 0-2.5 1.1-2.5 2.4 0 1.3 1.1 2.4 2.5 2.4h20.9c1.1 0 2-.7 2.4-1.6.4-1.6-.8-3.2-2.5-3.2M65.7 21.6H47.3c-1.4 0-2.5 1.1-2.5 2.4 0 1.3 1.1 2.4 2.5 2.4h18.4c1.1 0 2-.7 2.4-1.6.5-1.6-.7-3.2-2.4-3.2M64.4 30.4H47.3c-1.4 0-2.5 1.1-2.5 2.4 0 1.3 1.1 2.4 2.5 2.4h17.1c1.1 0 2-.7 2.4-1.6.5-1.6-.7-3.2-2.4-3.2"/></svg><svg width="40" height="40" viewBox="0 0 40 40" id="icon-check-large" x="233" xmlns="http://www.w3.org/2000/svg"><g stroke="#007E3C" stroke-width="2" fill="none" fill-rule="evenodd"><circle cx="20" cy="20" r="19"/><path d="M10 20l7.5 7.5M30 13.333L17.5 27.5" stroke-linecap="round" stroke-linejoin="round"/></g></svg><svg width="24" height="24" viewBox="0 0 24 24" id="icon-check-small" x="140" y="73" xmlns="http://www.w3.org/2000/svg"><g stroke="#007E3C" stroke-width="2" fill="none" fill-rule="evenodd"><circle cx="12" cy="12" r="11"/><path d="M6 12l4.5 4.5M18 8l-7.5 8.5" stroke-linecap="round" stroke-linejoin="round"/></g></svg><svg width="12" height="10" viewBox="0 0 12 10" id="icon-checkbox" x="273" y="211" xmlns="http://www.w3.org/2000/svg"><path fill="#FFF" d="M.7 5.2l1.8-1.8 2.2 2.2L9.5.8l1.8 1.8-6.6 6.6z"/><path fill="#007E3C" d="M9.5 1.2l1.4 1.4-6.2 6.2-3.6-3.6 1.4-1.4L4.7 6l4.8-4.8m0-.7l-.3.3-4.5 4.5-1.9-1.9-.3-.3-.4.3L.7 4.8l-.3.4.4.4 3.6 3.6.4.4.4-.4L11.3 3l.4-.4-.4-.4L9.9.8 9.5.5z"/></svg><svg width="14" height="14" viewBox="0 0 14 14" id="icon-close" x="273" y="197" xmlns="http://www.w3.org/2000/svg"><g transform="translate(-5 -5)" fill="none" fill-rule="evenodd"><path d="M0 0h24v24H0z"/><g transform="rotate(45 5.172 14.828)" stroke="#1C2023" stroke-linecap="round" stroke-width="2"><path d="M0 8h16M8 16V0"/></g></g></svg><svg width="20" height="17" viewBox="0 0 28 28" id="icon-comment" x="137" y="234" xmlns="http://www.w3.org/2000/svg"><path fill="#0e689c" d="M14 6q-3.187 0-5.961 1.086t-4.406 2.93T2 14q0 1.75 1.117 3.336t3.148 2.742l1.359.781-.422 1.5q-.375 1.422-1.094 2.688 2.375-.984 4.297-2.672l.672-.594.891.094q1.078.125 2.031.125 3.187 0 5.961-1.086t4.406-2.93T25.999 14t-1.633-3.984-4.406-2.93T13.999 6zm14 8q0 2.719-1.875 5.023t-5.094 3.641T14 24q-1.094 0-2.266-.125-3.094 2.734-7.187 3.781-.766.219-1.781.344h-.078q-.234 0-.422-.164t-.25-.43v-.016q-.047-.063-.008-.187t.031-.156.07-.148l.094-.141.109-.133.125-.141q.109-.125.484-.539t.539-.594.484-.617.508-.797.422-.922.406-1.188q-2.453-1.391-3.867-3.437t-1.414-4.391q0-2.719 1.875-5.023t5.094-3.641 7.031-1.336 7.031 1.336 5.094 3.641 1.875 5.023z"/></svg><svg width="20" height="17" viewBox="0 0 28 28" id="icon-comment-filled" x="157" y="234" xmlns="http://www.w3.org/2000/svg"><path fill="#0e689c" d="M28 14q0 2.719-1.875 5.023t-5.094 3.641T14 24q-1.094 0-2.266-.125-3.094 2.734-7.187 3.781-.766.219-1.781.344-.266.031-.477-.141t-.273-.453v-.016q-.047-.063-.008-.187t.031-.156.07-.148l.094-.141.109-.133.125-.141q.109-.125.484-.539t.539-.594.484-.617.508-.797.422-.922.406-1.188q-2.453-1.391-3.867-3.437t-1.414-4.391q0-2.031 1.109-3.883t2.984-3.195 4.469-2.133 5.437-.789q3.813 0 7.031 1.336t5.094 3.641 1.875 5.023z"/></svg><svg width="25" height="15" viewBox="0 0 25 15" id="icon-contact-envelope" x="233" y="127" xmlns="http://www.w3.org/2000/svg"><path fill="none" stroke="#276092" stroke-miterlimit="10" d="M.5.46h24v14.08H.5z"/><path fill="none" stroke="#276092" stroke-miterlimit="10" d="M.5.46h24l-12 8.39L.5.46z"/><path fill="none" stroke="#276092" stroke-miterlimit="10" d="M.5 14.36h24l-9.93-6.95-2.07 1.44-2.07-1.44L.5 14.36z"/></svg><svg width="25" height="15" viewBox="0 0 25 15" id="icon-contact-envelope-white" x="233" y="142" xmlns="http://www.w3.org/2000/svg"><path fill="none" stroke="#fff" stroke-miterlimit="10" d="M.5.46h24v14.08H.5z"/><path fill="none" stroke="#fff" stroke-miterlimit="10" d="M.5.46h24l-12 8.39L.5.46z"/><path fill="none" stroke="#fff" stroke-miterlimit="10" d="M.5 14.36h24l-9.93-6.95-2.07 1.44-2.07-1.44L.5 14.36z"/></svg><svg width="64" height="64" viewBox="0 0 64 64" id="icon-contact-facebook" y="146" xmlns="http://www.w3.org/2000/svg"><circle cx="32" cy="32" r="32" fill="#266093"/><path d="M47.57 14.5H16.43a1.92 1.92 0 0 0-1.93 1.93v31.14a1.92 1.92 0 0 0 1.93 1.93h16.76V35.94h-4.55v-5.27h4.55v-3.9c0-4.5 2.76-7 6.8-7a39.48 39.48 0 0 1 4.07.21v4.72h-2.79c-2.19 0-2.62 1-2.62 2.57v3.38h5.23l-.68 5.29h-4.55V49.5h8.92a1.92 1.92 0 0 0 1.93-1.93V16.43a1.92 1.92 0 0 0-1.93-1.93z" fill="#fff"/></svg><svg width="64" height="64" viewBox="0 0 64 64" id="icon-contact-google-plus" x="64" y="146" xmlns="http://www.w3.org/2000/svg"><circle cx="32" cy="32" r="32" fill="#266093"/><g fill="#fff"><path d="M14.09 32a11.3 11.3 0 0 1 10.8-11.35 11.42 11.42 0 0 1 8.18 2.8c-.93 1-1.88 2-2.89 3-2-1.21-4.4-2.13-6.73-1.31a7.19 7.19 0 1 0 4.85 13.53 6.29 6.29 0 0 0 3.7-4.32c-2.18 0-4.35 0-6.5-.07V30.4h10.89c.22 3.17-.25 6.57-2.31 9.11-2.86 3.63-8.08 4.7-12.32 3.27A11.36 11.36 0 0 1 14.09 32M43.41 27.12h3.24v3.25h3.25v3.24h-3.25v3.26H43.4v-3.25h-3.25V30.4h3.25v-3.25"/></g></svg><svg width="64" height="64" viewBox="0 0 64 64" id="icon-contact-instagram" x="128" y="146" xmlns="http://www.w3.org/2000/svg"><circle cx="32" cy="32" r="32" fill="#266093"/><path d="M45.78 29.24h-3.11a11 11 0 1 1-21.33 0h-3.12V44.4a1.37 1.37 0 0 0 1.37 1.38H44.4a1.37 1.37 0 0 0 1.38-1.38zm0-9.65a1.38 1.38 0 0 0-1.38-1.38h-4.13a1.38 1.38 0 0 0-1.38 1.38v4.14a1.37 1.37 0 0 0 1.38 1.37h4.13a1.37 1.37 0 0 0 1.38-1.37zM32 25.1a6.9 6.9 0 1 0 6.9 6.9 6.89 6.89 0 0 0-6.9-6.9m13.78 24.82H18.22a4.14 4.14 0 0 1-4.14-4.14V18.22a4.14 4.14 0 0 1 4.14-4.14h27.56a4.14 4.14 0 0 1 4.14 4.14v27.56a4.14 4.14 0 0 1-4.14 4.14" fill="#fff"/></svg><svg width="64" height="64" viewBox="0 0 64 64" id="icon-contact-twitter" x="169" xmlns="http://www.w3.org/2000/svg"><circle cx="32" cy="32" r="32" fill="#266093"/><path d="M49.92 20.89a15.09 15.09 0 0 1-4.23 1.16A7.39 7.39 0 0 0 48.93 18a14.71 14.71 0 0 1-4.67 1.78 7.36 7.36 0 0 0-12.53 6.71 20.86 20.86 0 0 1-15.15-7.69 7.36 7.36 0 0 0 2.27 9.82 7.32 7.32 0 0 1-3.35-.92v.09A7.37 7.37 0 0 0 21.42 35a7.45 7.45 0 0 1-3.32.13 7.38 7.38 0 0 0 6.9 5.09 14.77 14.77 0 0 1-9.13 3.14 17.14 17.14 0 0 1-1.76-.1 20.74 20.74 0 0 0 11.27 3.3c13.5 0 20.92-11.2 20.92-20.92v-.95a15 15 0 0 0 3.62-3.8z" fill="#fff"/></svg><svg width="64" height="64" viewBox="0 0 64 64" id="icon-contact-youtube" x="169" y="64" xmlns="http://www.w3.org/2000/svg"><circle cx="32" cy="32" r="32" fill="#266093"/><path d="M49.92 39.17a5.14 5.14 0 0 1-5.12 5.12H19.2a5.14 5.14 0 0 1-5.12-5.12V24.83a5.14 5.14 0 0 1 5.12-5.12h25.6a5.14 5.14 0 0 1 5.12 5.12zM28.3 36.4l9.7-5-9.7-5.05z" fill="#fff"/></svg><svg width="60" height="73" viewBox="0 0 59.2 73" id="icon-deliver" x="80" y="73" xmlns="http://www.w3.org/2000/svg"><path fill="#0E689C" d="M54.4 29.5c-3-4.3-8.5-7.1-14.2-9.3 1.3-2 2.1-4.5 2.1-7.1C42.3 6 36.6.2 29.5.2c-7 0-12.8 5.8-12.8 12.9 0 2.6.8 5.1 2.2 7.2-5.4 2.2-11.1 4.9-14 9.3C1.7 34.3.6 45.7.6 52.3c0 3.7 2.8 6 5.5 6.9.9.3 2.2.8 3.8 1.4v5c0 .5.4.9.8 1.1l18.7 5.9c.1 0 .2.1.4.1.1 0 .2 0 .4-.1l18.7-5.9c.5-.1.8-.6.8-1.1v-5c1.5-.6 3-1.1 3.9-1.4 2.7-.9 5.5-3.3 5.5-6.9-.4-6.6-1.5-18.1-4.7-22.8zM29.5 2.6c5.8 0 10.4 4.7 10.4 10.5s-4.7 10.5-10.4 10.5S19 18.8 19 13.1c0-5.8 4.7-10.5 10.5-10.5zm-6.6 49.5L12 47.4v-6.5l16.4 5.4v23.6L12 64.8v-3.3c3.4 1.2 6.7 2.4 6.7 2.4.7.2 1.4.4 2.1.4.9 0 1.8-.2 2.6-.6 1.5-.7 2.7-2 3.2-3.5 1.2-3.4-.5-6.9-3.7-8.1zm24.2-4.7L36.3 52c-3.3 1.2-4.9 4.8-3.8 8 .6 1.6 1.7 2.8 3.2 3.5.9.4 1.7.6 2.6.6.7 0 1.4-.1 2.1-.4l6.6-2.4v3.3l-16.3 5.1V46.2L47 41l.1 6.4zm-17.5-3.2l-5.5-1.8 14.8-4.8 5.6 1.8-14.9 4.8zm-9.3-3.1l-5.6-1.8 14.8-4.8 5.5 1.8-14.7 4.8zM52.5 57c-3.3 1.2-12.8 4.6-12.8 4.6-.9.4-2 .3-3-.1s-1.7-1.2-2-2.2c-.7-2 .3-4.3 2.4-5l11.6-5 .1-.1c.1-.1.2-.1.3-.2.1-.1.1-.1.1-.2.1-.1.1-.1.1-.2.1-.1.1-.2.1-.4v-8.9c0-.2-.1-.4-.2-.7 0-.1-.1-.1-.1-.1-.1-.1-.3-.3-.5-.4l-18.6-6c-.2-.1-.5-.1-.7 0l-18.5 6.1c-.6.1-1 .6-1 1.2v8.9c0 .1 0 .2.1.4 0 .1.1.1.1.2.1.1.1.1.1.2.1.1.1.1.3.1.1 0 .1.1.1.1l11.7 5c2 .7 3 3 2.3 5-.4 1-1.1 1.7-2 2.2-.9.4-2 .5-3 .1 0 0-9.5-3.5-12.8-4.6-.7-.2-3.9-1.6-3.9-4.8 0-7.7 1.4-17.8 4-21.4 2.7-4 8.4-6.7 13.7-8.7 2.2 2.3 5.4 3.8 9 3.8s6.8-1.5 9.1-3.9c5.4 2.1 11.1 4.8 13.9 8.8 2.5 3.6 4 13.7 4 21.4-.1 3.2-3.3 4.5-4 4.8z"/><path fill="#0E689C" d="M29.7 18.7c2.5 0 4.6-1.3 5.9-3.3.2-.3.1-.8-.2-1-.3-.2-.8-.1-1 .2-1.1 1.6-2.7 2.6-4.7 2.6s-3.7-1-4.7-2.6c-.2-.2-.4-.4-.7-.3-.2 0-.4.1-.6.4-.1.2-.1.5.1.7 1.2 2 3.4 3.3 5.9 3.3"/></svg><svg width="29" height="17" viewBox="-115 122 29 17" id="icon-double-arrow" x="233" y="110" xmlns="http://www.w3.org/2000/svg"><path fill="none" stroke="#246bb1" stroke-width="3" stroke-linecap="square" d="M-109.1 130.5h18.8"/><path fill="#246bb1" d="M-106.7 122.7l-8.5 7.8 8.5 8.2 2.2-2.2-6.2-6 6.2-5.7-2.2-2.1zm12 0l8.5 7.8-8.5 8.2-2.2-2.2 6.2-6-6.2-5.7 2.2-2.1z"/></svg><svg height="6" width="10" viewBox="0 0 10 6" id="icon-down" x="273" y="221" xmlns="http://www.w3.org/2000/svg"><path fill="#fff" fill-rule="evenodd" d="M0 0h10L5 6 0 0zm0 0"/></svg><svg width="21" height="21" viewBox="0 -0.9 21 21" id="icon-facebook" x="34" y="234" xmlns="http://www.w3.org/2000/svg"><path fill="#369" d="M1.9 18.2c.7.7 1.5 1.1 2.6 1.1h6.8v-7.6H8.5V8.9h2.8V6.8c0-1.2.3-2.1 1-2.8.7-.7 1.6-1 2.7-1 .7 0 1.5 0 2.3.1v2.6h-1.7c-.6 0-1 .1-1.2.4-.2.2-.4.6-.4 1v1.8h3l-.4 2.8h-2.5v7.6h2.4c1 0 1.8-.4 2.6-1.1.7-.7 1.1-1.5 1.1-2.6v-12c0-1-.4-1.8-1.1-2.5C18.4.4 17.6 0 16.5 0h-12c-1 0-1.8.4-2.6 1.1-.7.7-1 1.6-1 2.6v12c0 1 .3 1.8 1 2.5"/></svg><svg width="21" height="21" viewBox="0 -0.9 21 21" id="icon-facebook-white" x="55" y="234" xmlns="http://www.w3.org/2000/svg"><path fill="#FFF" d="M1.9 18.2c.7.7 1.5 1.1 2.6 1.1h6.8v-7.6H8.5V8.9h2.8V6.8c0-1.2.3-2.1 1-2.8.7-.7 1.6-1 2.7-1 .7 0 1.5 0 2.3.1v2.6h-1.7c-.6 0-1 .1-1.2.4-.2.2-.4.6-.4 1v1.8h3l-.4 2.8h-2.5v7.6h2.4c1 0 1.8-.4 2.6-1.1.7-.7 1.1-1.5 1.1-2.6v-12c0-1-.4-1.8-1.1-2.5C18.4.4 17.6 0 16.5 0h-12c-1 0-1.8.4-2.6 1.1-.7.7-1 1.6-1 2.6v12c0 1 .3 1.8 1 2.5"/></svg><svg width="17" height="17" viewBox="0 0 17 17" id="icon-green-arrow" x="273" y="120" xmlns="http://www.w3.org/2000/svg"><g fill="none" fill-rule="evenodd" transform="translate(1 .981)"><ellipse cx="7.5" cy="7.5" stroke="#007E3C" stroke-linecap="square" rx="7.5" ry="7.5"/><path fill="#007E3C" d="M7.315 3L12 7.484 7.315 12 5 9.768 7.352 7.5 5 5.232 7.315 3z"/></g></svg><svg width="40" height="40" viewBox="0 0 40 40" id="icon-info-large" x="233" y="40" xmlns="http://www.w3.org/2000/svg"><circle cx="20" cy="20" r="19" fill="none" stroke="#246bb1" stroke-width="2"/><path d="M19.2 11.57a1.49 1.49 0 0 1 .37-1.13 1.34 1.34 0 0 1 .95-.36 1.29 1.29 0 0 1 .93.37 1.45 1.45 0 0 1 .39 1.12 1.48 1.48 0 0 1-.39 1.12 1.29 1.29 0 0 1-.93.37 1.3 1.3 0 0 1-.95-.37 1.51 1.51 0 0 1-.37-1.12zm2.43 18.79h-2.24V15.57h2.24z" fill="#246bb1" style="isolation:isolate"/></svg><svg width="24" height="24" viewBox="0 0 24 24" id="icon-info-small" y="210" xmlns="http://www.w3.org/2000/svg"><circle cx="12" cy="12" r="11" fill="none" stroke="#246bb1" stroke-width="2"/><path d="M13.26 7.46a1.15 1.15 0 0 1-1.08 1.2h-.13a1.2 1.2 0 1 1-.22-2.39h.22a1.13 1.13 0 0 1 1.21 1zm-2.15 10.28l.16-7.55h1.58l.15 7.55z" fill="#246bb1"/></svg><svg width="20" height="20" viewBox="0 0 20 20" id="icon-instagram" x="97" y="234" xmlns="http://www.w3.org/2000/svg"><path d="M10 7.68A2.29 2.29 0 1 0 12.29 10 2.3 2.3 0 0 0 10 7.68z" fill="#0e689c"/><path d="M12.7 4.14H7.31a3.14 3.14 0 0 0-3.14 3.14v5.39a3.14 3.14 0 0 0 3.14 3.14h5.39a3.14 3.14 0 0 0 3.14-3.14V7.28a3.14 3.14 0 0 0-3.14-3.14zM10 13.47A3.5 3.5 0 1 1 13.5 10a3.5 3.5 0 0 1-3.5 3.47zM13.85 7a.87.87 0 1 1 .86-.86.86.86 0 0 1-.86.86z" fill="#0e689c"/><path d="M19.49 4.91a5.87 5.87 0 0 0-.1-1 4.07 4.07 0 0 0-.39-1.2 4.08 4.08 0 0 0-.79-1 3.76 3.76 0 0 0-1.73-1 7 7 0 0 0-1.81-.23H5.34a9 9 0 0 0-1 0 5.2 5.2 0 0 0-1.16.29A4 4 0 0 0 .7 3.48a6.88 6.88 0 0 0-.19 1.81v9.36a10.66 10.66 0 0 0 .08 1.26A4.64 4.64 0 0 0 1 17.19a4 4 0 0 0 1.15 1.39 3.71 3.71 0 0 0 1.14.62 6 6 0 0 0 1.88.28H15.06a7.1 7.1 0 0 0 1.13-.12 3.81 3.81 0 0 0 1.91-.93 3.91 3.91 0 0 0 1.26-2.1 7.82 7.82 0 0 0 .17-1.67v-.11l-.04-9.64zm-2.44 7.76A4.36 4.36 0 0 1 12.7 17H7.31A4.36 4.36 0 0 1 3 12.67V7.28a4.35 4.35 0 0 1 4.31-4.35h5.39a4.36 4.36 0 0 1 4.35 4.35z" fill="#0e689c"/></svg><svg width="20" height="20" viewBox="0 0 20 20" id="icon-instagram-white" x="117" y="234" xmlns="http://www.w3.org/2000/svg"><path d="M10 7.68A2.29 2.29 0 1 0 12.29 10 2.3 2.3 0 0 0 10 7.68z" fill="#fff"/><path d="M12.7 4.14H7.31a3.14 3.14 0 0 0-3.14 3.14v5.39a3.14 3.14 0 0 0 3.14 3.14h5.39a3.14 3.14 0 0 0 3.14-3.14V7.28a3.14 3.14 0 0 0-3.14-3.14zM10 13.47A3.5 3.5 0 1 1 13.5 10a3.5 3.5 0 0 1-3.5 3.47zM13.85 7a.87.87 0 1 1 .86-.86.86.86 0 0 1-.86.86z" fill="#fff"/><path d="M19.49 4.91a5.87 5.87 0 0 0-.1-1 4.07 4.07 0 0 0-.39-1.2 4.08 4.08 0 0 0-.79-1 3.76 3.76 0 0 0-1.73-1 7 7 0 0 0-1.81-.23H5.34a9 9 0 0 0-1 0 5.2 5.2 0 0 0-1.16.29A4 4 0 0 0 .7 3.48a6.88 6.88 0 0 0-.19 1.81v9.36a10.66 10.66 0 0 0 .08 1.26A4.64 4.64 0 0 0 1 17.19a4 4 0 0 0 1.15 1.39 3.71 3.71 0 0 0 1.14.62 6 6 0 0 0 1.88.28H15.06a7.1 7.1 0 0 0 1.13-.12 3.81 3.81 0 0 0 1.91-.93 3.91 3.91 0 0 0 1.26-2.1 7.82 7.82 0 0 0 .17-1.67v-.11l-.04-9.64zm-2.44 7.76A4.36 4.36 0 0 1 12.7 17H7.31A4.36 4.36 0 0 1 3 12.67V7.28a4.35 4.35 0 0 1 4.31-4.35h5.39a4.36 4.36 0 0 1 4.35 4.35z" fill="#fff"/></svg><svg viewBox="0 0 24 24" height="24" width="24" id="icon-lock" x="192" y="186" xmlns="http://www.w3.org/2000/svg"><g transform="translate(.06 -1023.96) scale(.9939)"><path d="M12.157 1046.55c.017.093-.045.168-.139.168h-1.997a.137.137 0 0 1-.139-.168l.318-1.685a1.2 1.2 0 1 1 1.636-.018z"/><path d="M14.216 1040.15H7.801v-1.98a3.21 3.21 0 0 1 3.207-3.207 3.21 3.21 0 0 1 3.207 3.207zm1.711.018v-1.998a4.924 4.924 0 0 0-4.919-4.919 4.925 4.925 0 0 0-4.919 4.919v1.998a.857.857 0 0 0-.68.837v7.488c0 .472.384.855.856.855h9.485a.857.857 0 0 0 .856-.855v-7.488a.857.857 0 0 0-.68-.837"/></g></svg><svg width="22" height="14" viewBox="0 0 22 14" id="icon-menu" x="72" y="210" xmlns="http://www.w3.org/2000/svg"><g fill="#fff"><path d="M0 0h22v2H0V0M0 6h22v2H0V6M0 12h22v2H0v-2"/></g></svg><svg width="18" height="2" viewBox="0 0 18 2" id="icon-minus" x="273" y="36" xmlns="http://www.w3.org/2000/svg"><g transform="translate(-3 -11)" fill="none" fill-rule="evenodd"><path d="M0 0h24v24H0z"/><path d="M4 12h16" stroke="#1C2023" stroke-width="2" stroke-linecap="round"/></g></svg><svg width="18" height="18" viewBox="0 0 20 20" id="icon-minus-blue" x="273" y="38" xmlns="http://www.w3.org/2000/svg"><rect y="7.5" width="18" height="3" rx=".7" fill="#0e689c"/></svg><svg width="18" height="14" viewBox="-296 389 18 14" id="icon-mobile-menu" x="273" y="56" xmlns="http://www.w3.org/2000/svg"><g fill="#fff"><path d="M-296 389h18v3.2h-18V389M-296 394.4h18v3.2h-18v-3.2M-296 399.8h18v3.2h-18v-3.2"/></g></svg><svg width="24" height="24" viewBox="0 0 24 24" id="icon-order" x="233" y="181" xmlns="http://www.w3.org/2000/svg"><g stroke="#FFF" fill="none" fill-rule="evenodd"><path d="M13.06.732a2.544 2.544 0 0 0-2.12 0L1.795 4.992C.998 5.363.5 6.111.5 6.923v10.145c-.006.81.488 1.562 1.283 1.936l9.144 4.261c.671.313 1.464.313 2.135 0l9.143-4.261c.797-.369 1.295-1.117 1.295-1.93V6.925c0-.813-.498-1.562-1.297-1.932L13.061.732z"/><path d="M7 3l11 5.173M1 6l11 5.173M23 6l-11 5.173M12 11.5v11.8" stroke-linecap="square"/></g></svg><svg width="18" height="18" viewBox="0 0 18 18" id="icon-plus" x="273" xmlns="http://www.w3.org/2000/svg"><g transform="translate(-3 -3)" fill="none" fill-rule="evenodd"><path d="M0 0h24v24H0z"/><path d="M4 12h16M12 20V4" stroke="#1C2023" stroke-width="2" stroke-linecap="round"/></g></svg><svg width="18" height="18" viewBox="0 0 18 18" id="icon-plus-blue" x="273" y="88" xmlns="http://www.w3.org/2000/svg"><rect y="7.5" width="18" height="3" rx=".7" fill="#0e689c"/><rect x="7.5" width="3" height="18" rx=".7" fill="#0e689c"/></svg><svg width="14" height="14" viewBox="0 0 14 14" id="icon-plus-circle" x="273" y="170" xmlns="http://www.w3.org/2000/svg"><path d="M7 0a6.79 6.79 0 0 1 3.5 1 7.08 7.08 0 0 1 2.55 2.5A6.79 6.79 0 0 1 14 7a6.79 6.79 0 0 1-.95 3.5 7.08 7.08 0 0 1-2.55 2.55A6.79 6.79 0 0 1 7 14a6.79 6.79 0 0 1-3.5-.95A7.08 7.08 0 0 1 1 10.5 6.79 6.79 0 0 1 0 7a6.79 6.79 0 0 1 1-3.5A7.08 7.08 0 0 1 3.5 1 6.79 6.79 0 0 1 7 0zm4.06 7.79V6.21A.36.36 0 0 0 11 6a.33.33 0 0 0-.24-.1H8.13V3.27A.33.33 0 0 0 8 3a.36.36 0 0 0-.24-.09H6.21A.36.36 0 0 0 6 3a.33.33 0 0 0-.1.24v2.6H3.27A.33.33 0 0 0 3 6a.36.36 0 0 0-.09.24v1.55A.36.36 0 0 0 3 8a.33.33 0 0 0 .24.1h2.6v2.6A.33.33 0 0 0 6 11a.36.36 0 0 0 .24.09h1.55A.36.36 0 0 0 8 11a.33.33 0 0 0 .1-.24V8.13h2.6A.33.33 0 0 0 11 8a.36.36 0 0 0 .06-.21z" fill="#0e689c" fill-rule="evenodd"/></svg><svg width="16" height="16" viewBox="0 0 16 16" id="icon-question" x="273" y="154" xmlns="http://www.w3.org/2000/svg"><circle cx="8" cy="8.1" r="8" fill="#737373"/><path d="M7.94 3.15c1.81 0 3 1.07 3 2.54A2.61 2.61 0 0 1 9.53 8c-.89.52-1.14.88-1.14 1.59V10H7v-.51a2.22 2.22 0 0 1 1.29-2.14c.83-.5 1.12-.9 1.12-1.6a1.39 1.39 0 0 0-1.54-1.34 1.5 1.5 0 0 0-1.62 1.47H4.84a2.79 2.79 0 0 1 3.1-2.73zM6.8 12.32a.9.9 0 1 1 .89.88.88.88 0 0 1-.89-.88z" fill="#fff" style="isolation:isolate"/></svg><svg width="22" height="24" viewBox="0 0 22 24" id="icon-shop" x="140" y="121" xmlns="http://www.w3.org/2000/svg"><g stroke="#FFF" fill="none" fill-rule="evenodd"><path d="M2.364 6.5a.65.65 0 0 0-.648.603l-1.129 15.7-.001.047c0 .359.29.65.65.65h19.528c.024 0 .024 0 .047-.002a.65.65 0 0 0 .602-.695l-1.13-15.7a.65.65 0 0 0-.647-.603H2.364z"/><path d="M6.5 6.5h9.059V5.03a4.53 4.53 0 1 0-9.059 0V6.5z"/></g></svg><svg width="89" height="73" viewBox="0 0 89 73" id="icon-store" xmlns="http://www.w3.org/2000/svg"><path fill="#0E689C" d="M8.4.438c-.9 0-1.6.6-1.6 1.6v10l-5.7 5.3c-.3.3-.6.6-.6.9v4c0 3.5 2.8 6.3 6.3 6.3V59.038l.3.3.3.3s.3 0 .6.3H31.9v9.4h-9.4v3.1h44v-3.1H57v-9.4H81.5l.3-.3s.3 0 .3-.3v-.3-.3V28.538c3.5 0 6.3-2.8 6.3-6.3V21.338v-1.2-2.5c0-.3-.3-.9-.6-.9l-5.7-5v-9.7c0-.9-.6-1.6-1.6-1.6H8.4zm1.5 3.1H79v5.3l-1.9-1.9c-.3-.3-.6-.3-.9-.3H12.1c-.3 0-.3.3-.6.3l-1.6 1.6v-5zm3.5 6.3h62.1l5 4.7-72.2.3 5.1-5zm70.3 7.6l1.3 1.3v3.7c0 1.9-1.3 3.1-3.1 3.1s-3.1-1.3-3.1-3.1c0-.9-.6-1.6-1.6-1.6-.9 0-1.6.6-1.6 1.6 0 1.9-1.3 3.1-3.1 3.1s-3.1-1.3-3.1-3.1c0-.9-.6-1.6-1.6-1.6-.9 0-1.6.6-1.6 1.6 0 1.9-1.3 3.1-3.1 3.1s-3.1-1.3-3.1-3.1c0-.9-.6-1.6-1.6-1.6-.9 0-1.6.6-1.6 1.6 0 1.9-1.3 3.1-3.1 3.1s-3.1-1.3-3.1-3.1c0-.9-.6-1.6-1.6-1.6-.9 0-1.6.6-1.6 1.6 0 1.9-1.3 3.1-3.1 3.1-1.9 0-3.1-1.3-3.1-3.1 0-.9-.6-1.6-1.6-1.6-.9 0-1.6.6-1.6 1.6 0 1.9-1.3 3.1-3.1 3.1s-3.1-1.3-3.1-3.1c0-.9-.6-1.6-1.6-1.6-.9 0-1.6.6-1.6 1.6 0 1.9-1.3 3.1-3.1 3.1s-3.1-1.3-3.1-3.1c0-.9-.6-1.6-1.6-1.6-.9 0-1.6.6-1.6 1.6 0 1.9-1.3 3.1-3.1 3.1s-3.1-1.3-3.1-3.1c0-.9-.6-1.6-1.6-1.6-.9 0-1.6.6-1.6 1.6 0 1.9-1.3 3.1-3.1 3.1s-3.1-1.3-3.1-3.1v-.6-2.8l1.3-.9 78.8-.7zm-72.2 8.4c1.3 1.6 2.8 2.5 4.7 2.5s3.5-.9 4.7-2.5c1.3 1.6 2.8 2.5 4.7 2.5s3.5-.9 4.7-2.5c1.3 1.6 2.8 2.5 4.7 2.5s3.5-.9 4.7-2.5c1.3 1.6 2.8 2.5 4.7 2.5 1.9 0 3.5-.9 4.7-2.5 1.3 1.6 2.8 2.5 4.7 2.5s3.5-.9 4.7-2.5c1.3 1.6 2.8 2.5 4.7 2.5 1.9 0 3.5-.9 4.7-2.5 1.3 1.6 2.8 2.5 4.7 2.5 1.9 0 3.5-.9 4.7-2.5.3.6.9.9 1.6 1.6v19.7h-69v-19.8c.6-.2 1.3-.8 1.6-1.5zm-1.6 24.8H79v6.3H9.9v-6.3zm25.1 9.5h18.8v9.4H35v-9.4z"/></svg><svg viewBox="0 0 18 18" width="18" height="18" id="icon-store-search-white" x="273" y="70" xmlns="http://www.w3.org/2000/svg"><path d="M13.84 12.68l3.37 3.37a.51.51 0 0 1 0 .74l-.32.32a.5.5 0 0 1-.73 0l-3.37-3.37a7.26 7.26 0 0 1-4.63 1.68 7.37 7.37 0 1 1 7.37-7.37 7.25 7.25 0 0 1-1.69 4.63zM8.16 13a5.14 5.14 0 0 0 5.25-5 5.14 5.14 0 0 0-5.25-5 5.13 5.13 0 0 0-5.25 5 5.13 5.13 0 0 0 5.25 5z" fill="#fff"/></svg><svg width="21" height="21" viewBox="0 0 21 21" id="icon-twitter" x="13" y="234" xmlns="http://www.w3.org/2000/svg"><path fill="#0F689B" d="M1.9 19.1c.7.7 1.5 1.1 2.6 1.1h12c1 0 1.8-.4 2.6-1.1.7-.7 1.1-1.5 1.1-2.6v-12c0-1-.4-1.8-1.1-2.5-.7-.7-1.5-1.1-2.6-1.1h-12c-1 0-1.8.4-2.6 1.1-.7.7-1 1.5-1 2.5v12c0 1 .3 1.9 1 2.6zM4.7 15c1.2 0 2.3-.4 3.3-1.1-.6 0-1.1-.2-1.5-.5-.5-.4-.8-.8-1-1.4.2 0 .4.1.5.1.2 0 .4 0 .6-.1-.6-.1-1.1-.4-1.5-.9-.4-.5-.6-1.1-.6-1.7.4.2.9.3 1.3.3-.8-.5-1.2-1.2-1.2-2.2 0-.5.1-.9.4-1.3.7.8 1.5 1.5 2.4 2 .9.5 2 .7 3 .8 0-.2-.1-.4-.1-.6 0-.7.3-1.3.8-1.9.5-.5 1.1-.8 1.8-.8.8 0 1.4.3 1.9.8.6-.1 1.1-.3 1.7-.7-.2.7-.5 1.2-1.1 1.5.5-.1 1-.2 1.5-.4-.4.5-.8 1-1.3 1.3v.3c0 .7-.1 1.4-.3 2.1-.2.7-.5 1.4-.9 2-.4.7-.9 1.2-1.5 1.7s-1.3.9-2.1 1.2c-.8.3-1.7.4-2.6.4-1.5 0-2.8-.4-4-1.2.1.3.3.3.5.3z"/></svg><svg width="21" height="21" viewBox="0 0 21 21" id="icon-twitter-white" x="76" y="234" xmlns="http://www.w3.org/2000/svg"><path fill="#FFF" d="M1.9 19.1c.7.7 1.5 1.1 2.6 1.1h12c1 0 1.8-.4 2.6-1.1.7-.7 1.1-1.5 1.1-2.6v-12c0-1-.4-1.8-1.1-2.5-.7-.7-1.5-1.1-2.6-1.1h-12c-1 0-1.8.4-2.6 1.1-.7.7-1 1.5-1 2.5v12c0 1 .3 1.9 1 2.6zM4.7 15c1.2 0 2.3-.4 3.3-1.1-.6 0-1.1-.2-1.5-.5-.5-.4-.8-.8-1-1.4.2 0 .4.1.5.1.2 0 .4 0 .6-.1-.6-.1-1.1-.4-1.5-.9-.4-.5-.6-1.1-.6-1.7.4.2.9.3 1.3.3-.8-.5-1.2-1.2-1.2-2.2 0-.5.1-.9.4-1.3.7.8 1.5 1.5 2.4 2 .9.5 2 .7 3 .8 0-.2-.1-.4-.1-.6 0-.7.3-1.3.8-1.9.5-.5 1.1-.8 1.8-.8.8 0 1.4.3 1.9.8.6-.1 1.1-.3 1.7-.7-.2.7-.5 1.2-1.1 1.5.5-.1 1-.2 1.5-.4-.4.5-.8 1-1.3 1.3v.3c0 .7-.1 1.4-.3 2.1-.2.7-.5 1.4-.9 2-.4.7-.9 1.2-1.5 1.7s-1.3.9-2.1 1.2c-.8.3-1.7.4-2.6.4-1.5 0-2.8-.4-4-1.2.1.3.3.3.5.3z"/></svg><svg width="10" height="6" viewBox="-634 398 10 6" id="icon-up" x="273" y="227" xmlns="http://www.w3.org/2000/svg"><path fill="#fff" d="M-624 404h-10l5-6 5 6z"/></svg><svg width="30" height="30" viewBox="0 0 30 30" id="icon-user-default" x="233" y="80" xmlns="http://www.w3.org/2000/svg"><circle cx="15" cy="15" r="13.85" fill="#86b4cc"/><path d="M15 18.56a4.78 4.78 0 0 1-4.17-2.39 4.82 4.82 0 0 1 1.77-6.59 4.82 4.82 0 1 1 2.42 9zm3.38 1.2a4.87 4.87 0 0 1 2.52.68 5 5 0 0 1 1.84 1.84 4.89 4.89 0 0 1 .67 2.51v1.58a1.78 1.78 0 0 1-1.8 1.8H8.41a1.78 1.78 0 0 1-1.8-1.8v-1.58a4.89 4.89 0 0 1 .67-2.51 5 5 0 0 1 1.84-1.84 4.87 4.87 0 0 1 2.52-.68h.64a6.56 6.56 0 0 0 5.48 0z" fill="#cfe1eb" fill-rule="evenodd"/><circle cx="15" cy="15" r="14" fill="none" stroke="#fff" stroke-width="2"/></svg></svg>